<svg width="16" height="20" viewBox="0 0 16 20" fill="none" xmlns="http://www.w3.org/2000/svg">
<path d="M15.716 6.672C15.716 7.81067 15.4547 8.856 14.932 9.808C14.4093 10.7413 13.6067 11.4973 12.524 12.076C11.4413 12.6547 10.0973 12.944 8.492 12.944H5.524V20H0.736V0.343999H8.492C10.06 0.343999 11.3853 0.614666 12.468 1.156C13.5507 1.69733 14.3627 2.444 14.904 3.396C15.4453 4.348 15.716 5.44 15.716 6.672ZM8.128 9.136C9.04267 9.136 9.724 8.92133 10.172 8.492C10.62 8.06267 10.844 7.456 10.844 6.672C10.844 5.888 10.62 5.28133 10.172 4.852C9.724 4.42267 9.04267 4.208 8.128 4.208H5.524V9.136H8.128Z" fill="#007AFF" style="fill:#007AFF;fill:color(display-p3 0.0000 0.4784 1.0000);fill-opacity:1;"/>
</svg>
